<svg width="24" height="24" viewBox="0 0 24 24" fill="none" xmlns="http://www.w3.org/2000/svg">
<path d="M8.85157 6.8982C8.93073 6.97715 8.99353 7.07095 9.03639 7.17422C9.07924 7.27749 9.10129 7.38819 9.10129 7.5C9.10129 7.6118 9.07924 7.72251 9.03639 7.82577C8.99353 7.92904 8.93073 8.02284 8.85157 8.1018L4.9519 12L8.85165 15.8983L8.85166 15.8983C8.93068 15.9773 8.99336 16.0711 9.03613 16.1744C9.07889 16.2776 9.1009 16.3882 9.1009 16.5C9.1009 16.6117 9.07889 16.7224 9.03613 16.8256C8.99336 16.9289 8.93068 17.0227 8.85166 17.1017C8.77264 17.1807 8.67884 17.2434 8.5756 17.2862C8.47235 17.3289 8.3617 17.3509 8.24995 17.3509C8.1382 17.3509 8.02755 17.3289 7.92431 17.2862C7.82107 17.2434 7.72726 17.1807 7.64824 17.1017L3.14833 12.6018C3.06917 12.5228 3.00637 12.429 2.96352 12.3258C2.92067 12.2225 2.89861 12.1118 2.89861 12C2.89861 11.8882 2.92067 11.7775 2.96352 11.6742C3.00636 11.571 3.06914 11.4772 3.14828 11.3983L3.14824 11.3983L8.85157 6.8982ZM8.85157 6.8982L8.78095 6.969L8.85175 6.89838C8.77279 6.81922 8.679 6.75642 8.57573 6.71356C8.47246 6.67071 8.36176 6.64866 8.24995 6.64866C8.13815 6.64866 8.02744 6.67071 7.92417 6.71356C7.82091 6.75642 7.72711 6.81922 7.64815 6.89838L3.14833 11.3982L8.85157 6.8982Z" fill="#11121B" stroke="#11121B" strokeWidth="0.2"/>
<path d="M3.89896 11.399C3.73955 11.5584 3.65 11.7746 3.65 12C3.65 12.2254 3.73955 12.4416 3.89896 12.601C4.05837 12.7604 4.27457 12.85 4.5 12.85H20.25C20.4754 12.85 20.6916 12.7604 20.851 12.601C21.0104 12.4416 21.1 12.2254 21.1 12C21.1 11.7746 21.0104 11.5584 20.851 11.399C20.6916 11.2396 20.4754 11.15 20.25 11.15H4.5C4.27457 11.15 4.05837 11.2396 3.89896 11.399Z" fill="#11121B" stroke="#11121B" strokeWidth="0.2"/>
</svg>
